<?xml version="1.0" ?><!-- Uploaded to: SVG Repo, www.svgrepo.com, Generator: SVG Repo Mixer Tools -->
<svg fill="#000000" width="800px" height="800px" viewBox="0 0 64 64" data-name="Layer 1" id="Layer_1" xmlns="http://www.w3.org/2000/svg"><path d="M41,11a20.4135,20.4135,0,0,0-16.0012,8.1057C13.1245,17.6849,2.8474,28.4253,3,38c-.3376,16.9421,29.975,19.9048,37.97,6.9991C52.7448,45.0163,61.0051,38.8392,61,30,61,21.0312,52.4473,11,41,11ZM38.0312,25.9214c3.5864-2.5854,8.36.8763,8.9415,3.7793a11.8632,11.8632,0,0,1-5.5987,1.2954A21.4126,21.4126,0,0,0,38.0312,25.9214Zm4.58,8.6918c-.1264-.5571-.2815-1.1124-.4611-1.6568C45.3157,32.7366,49,31.6534,49,30c-.2866-4.6533-7.2669-9.4533-12.393-5.53-.5032-.4679-1.0333-.9121-1.5848-1.3331C41.3385,17.8877,50.657,23.331,51,30c0,3.3155-4.8711,4.6135-8.3146,4.92C42.6646,34.8173,42.6339,34.716,42.6111,34.6132ZM23,51C12.4019,51,5,45.6543,5,38c-.1726-8.6936,9.4733-18.4666,20.2222-16.8447a18.9818,18.9818,0,0,1,14.631,11.3564C44.1255,42.777,36.0672,51.0661,23,51Zm19.0547-8.0181a13.7469,13.7469,0,0,0,.8987-6.0742c21.6742-1.7522,3.4471-26.2046-9.6432-14.9463a19.8558,19.8558,0,0,0-6.0431-2.4829C38.4513,6.4213,58.4863,14.9144,59,30,59,37.3979,52.0859,42.6392,42.0547,42.9819Z"/><path d="M23,27c-6.6475,0-12,6.0176-12,11,.2065,6.25,9.0651,7.3333,14,6.889V46a3,3,0,0,0,6,0V43.3984C40.4112,38.92,31.4414,26.7329,23,27Zm6,19a1,1,0,0,1-2,0V43.7744c-.0014-1.2869.1976-3.0458-.9264-3.9623A3.7985,3.7985,0,0,0,23,39a12.1586,12.1586,0,0,1-5.9731-1.2994A6.8263,6.8263,0,0,1,23,33c3.2227,0,6,3.3535,6,5C28.9942,39.9265,29.0042,44.104,29,46Zm2-4.8706V38c0-2.7-3.6611-7-8-7s-8,4.3-8,7c0,1.8589,4.66,3,8,3,1.713-.1136,2.1037.118,2,1.8906-3.3469.3549-11.7649-.2022-12-4.89,0-3.9674,4.7086-9,10-9C28.9041,28.6839,36.7481,37.4989,31,41.1294Z"/></svg>